FILE "Dungeon Master II - Skullkeep (1994)(JVC)(JP).img" BINARY
  TRACK 01 MODE1/2352
    INDEX 01 00:00:00
  TRACK 02 AUDIO
    PREGAP 00:02:00
    INDEX 01 01:17:23
  TRACK 03 AUDIO
    INDEX 00 04:20:04
    INDEX 01 04:22:03
  TRACK 04 AUDIO
    INDEX 00 08:25:71
    INDEX 01 08:27:70
  TRACK 05 AUDIO
    INDEX 00 09:57:46
    INDEX 01 09:59:45
  TRACK 06 AUDIO
    INDEX 00 11:58:20
    INDEX 01 12:00:19
  TRACK 07 AUDIO
    INDEX 00 16:51:22
    INDEX 01 16:53:21
